<svg width="25" height="25" viewBox="0 0 25 25" fill="none" xmlns="http://www.w3.org/2000/svg">
<rect width="25" height="25" rx="12.5" fill="url(#paint0_linear_234_1090)"/>
<path d="M4.5625 6.95312C6.21265 10.0842 9.12842 10.572 12.666 10.6445C14.7534 10.6885 19.3457 10.5105 19.3457 11.6289C19.3457 12.4683 16.2871 15.0984 16.2871 15.6367C16.2871 15.6367 18.4075 13.8438 19.5918 12.7891C20.7761 11.7344 21.4375 11.1104 21.4375 10.4863C21.4375 9.21631 16.5266 9.44922 12.5605 9.44922C8.59448 9.44922 6.42578 8.69775 4.5625 6.95312ZM8.99219 16.6738C8.3352 16.6738 7.79688 17.1946 7.79688 17.8516C7.79688 18.5085 8.3352 19.0469 8.99219 19.0469C9.64917 19.0469 10.1699 18.5085 10.1699 17.8516C10.1699 17.1946 9.64917 16.6738 8.99219 16.6738ZM14.4766 16.6738C13.8196 16.6738 13.2988 17.1946 13.2988 17.8516C13.2988 18.5085 13.8196 19.0469 14.4766 19.0469C15.1335 19.0469 15.6719 18.5085 15.6719 17.8516C15.6719 17.1946 15.1335 16.6738 14.4766 16.6738Z" fill="white"/>
<path d="M12.5714 11.7148V15.1434" stroke="white" stroke-linecap="round"/>
<path d="M14.2857 13.4297L10.8571 13.4297" stroke="white" stroke-linecap="round"/>
<defs>
<linearGradient id="paint0_linear_234_1090" x1="0" y1="12.5" x2="25" y2="12.5" gradientUnits="userSpaceOnUse">
<stop stop-color="#006838"/>
<stop offset="0.235577" stop-color="#017F45"/>
<stop offset="0.5" stop-color="#008849"/>
<stop offset="0.75" stop-color="#017F45"/>
<stop offset="1" stop-color="#006838"/>
</linearGradient>
</defs>
</svg>
